<svg width="40" height="40" viewBox="0 0 40 40" fill="none" xmlns="http://www.w3.org/2000/svg">
<path d="M6.66663 11.6667H33.3333M31.6666 11.6667L30.2216 31.9033C30.1618 32.7443 29.7855 33.5314 29.1685 34.106C28.5515 34.6806 27.7397 35 26.8966 35H13.1033C12.2602 35 11.4484 34.6806 10.8314 34.106C10.2145 33.5314 9.83815 32.7443 9.77829 31.9033L8.33329 11.6667H31.6666ZM16.6666 18.3333V28.3333V18.3333ZM23.3333 18.3333V28.3333V18.3333ZM25 11.6667V6.66667C25 6.22464 24.8244 5.80072 24.5118 5.48816C24.1992 5.17559 23.7753 5 23.3333 5H16.6666C16.2246 5 15.8007 5.17559 15.4881 5.48816C15.1756 5.80072 15 6.22464 15 6.66667V11.6667H25Z" stroke="#112B3D" stroke-width="2" stroke-linecap="round" stroke-linejoin="round"/>
</svg>
