<svg width="34" height="34" viewBox="0 0 34 34" fill="none" xmlns="http://www.w3.org/2000/svg">
<path d="M17.32 1C8.3072 1 1 8.35131 1 17.4185C1 25.6122 6.96719 32.4036 14.7706 33.64V22.1656H10.6249V17.4185H14.7706V13.8012C14.7706 9.68298 17.2074 7.41207 20.9336 7.41207C22.7192 7.41207 24.5897 7.73227 24.5897 7.73227V11.77H22.5266C20.5027 11.77 19.8694 13.0376 19.8694 14.3365V17.4152H24.3922L23.6691 22.1623H19.8694V33.6367C27.6728 32.4068 33.64 25.6138 33.64 17.4185C33.64 8.35131 26.3328 1 17.32 1V1Z" fill="black"/>
</svg>
