<svg width="34" height="34" viewBox="0 0 34 34" fill="none" xmlns="http://www.w3.org/2000/svg">
<path d="M22.1 17C22.1 18.3526 21.5627 19.6498 20.6062 20.6062C19.6498 21.5627 18.3526 22.1 17 22.1C15.6474 22.1 14.3502 21.5627 13.3937 20.6062C12.4373 19.6498 11.9 18.3526 11.9 17C11.9 16.7093 11.9306 16.4254 11.9833 16.15H10.2V22.9449C10.2 23.4175 10.5825 23.8 11.0551 23.8H22.9466C23.1731 23.7995 23.3901 23.7093 23.5501 23.5489C23.7101 23.3886 23.8 23.1714 23.8 22.9449V16.15H22.0167C22.0694 16.4254 22.1 16.7093 22.1 17V17ZM17 20.4C17.4466 20.3999 17.8888 20.3118 18.3014 20.1408C18.7139 19.9698 19.0888 19.7192 19.4045 19.4033C19.7202 19.0874 19.9706 18.7125 20.1414 18.2998C20.3123 17.8872 20.4001 17.4449 20.4 16.9983C20.3999 16.5517 20.3118 16.1095 20.1408 15.6969C19.9698 15.2843 19.7192 14.9095 19.4033 14.5938C19.0874 14.2781 18.7125 14.0276 18.2998 13.8568C17.8872 13.686 17.4449 13.5982 16.9983 13.5983C16.0963 13.5985 15.2314 13.957 14.5938 14.595C13.9562 15.2329 13.5981 16.098 13.5983 17C13.5985 17.902 13.957 18.7669 14.595 19.4045C15.2329 20.0421 16.098 20.4002 17 20.4V20.4ZM21.08 13.43H23.1183C23.2537 13.43 23.3836 13.3763 23.4795 13.2807C23.5754 13.1851 23.6295 13.0554 23.63 12.92V10.8817C23.63 10.746 23.5761 10.6158 23.4801 10.5199C23.3842 10.4239 23.254 10.37 23.1183 10.37H21.08C20.9443 10.37 20.8141 10.4239 20.7182 10.5199C20.6222 10.6158 20.5683 10.746 20.5683 10.8817V12.92C20.57 13.2005 20.7995 13.43 21.08 13.43V13.43ZM17 0.679993C12.6717 0.679993 8.5206 2.39942 5.46001 5.46001C2.39942 8.5206 0.679993 12.6717 0.679993 17C0.679993 21.3283 2.39942 25.4794 5.46001 28.54C8.5206 31.6006 12.6717 33.32 17 33.32C19.1432 33.32 21.2654 32.8979 23.2454 32.0777C25.2254 31.2576 27.0245 30.0554 28.54 28.54C30.0554 27.0245 31.2576 25.2254 32.0777 23.2454C32.8979 21.2654 33.32 19.1432 33.32 17C33.32 14.8568 32.8979 12.7346 32.0777 10.7546C31.2576 8.77457 30.0554 6.97546 28.54 5.46001C27.0245 3.94456 25.2254 2.74244 23.2454 1.92228C21.2654 1.10212 19.1432 0.679993 17 0.679993V0.679993ZM25.5 23.6113C25.5 24.65 24.65 25.5 23.6113 25.5H10.3887C9.34999 25.5 8.49999 24.65 8.49999 23.6113V10.3887C8.49999 9.34999 9.34999 8.49999 10.3887 8.49999H23.6113C24.65 8.49999 25.5 9.34999 25.5 10.3887V23.6113V23.6113Z" fill="black"/>
</svg>
