<svg width="34" height="34" viewBox="0 0 34 34" fill="none" xmlns="http://www.w3.org/2000/svg">
<path d="M17 0.679993C7.98659 0.679993 0.679993 7.98659 0.679993 17C0.679993 26.0134 7.98659 33.32 17 33.32C26.0134 33.32 33.32 26.0134 33.32 17C33.32 7.98659 26.0134 0.679993 17 0.679993ZM23.6385 14.0488C23.6453 14.1882 23.647 14.3276 23.647 14.4636C23.647 18.7136 20.4153 23.6113 14.5027 23.6113C12.7556 23.6142 11.0448 23.1124 9.57609 22.1663C9.82599 22.1969 10.0827 22.2088 10.3428 22.2088C11.849 22.2088 13.2345 21.6971 14.3344 20.8335C13.6641 20.8203 13.0146 20.5984 12.4765 20.1986C11.9383 19.7988 11.5383 19.241 11.3322 18.6031C11.8136 18.6946 12.3094 18.6754 12.7823 18.547C12.0548 18.3999 11.4005 18.0057 10.9305 17.4312C10.4605 16.8568 10.2036 16.1374 10.2034 15.3952V15.3561C10.6369 15.5958 11.1333 15.742 11.6603 15.759C10.9783 15.305 10.4954 14.6075 10.3106 13.8093C10.1257 13.0111 10.2528 12.1724 10.6658 11.4648C11.4732 12.4576 12.4801 13.2698 13.6214 13.8487C14.7626 14.4277 16.0127 14.7605 17.2907 14.8257C17.1282 14.136 17.1981 13.412 17.4896 12.7662C17.7811 12.1203 18.2777 11.5889 18.9024 11.2544C19.5271 10.92 20.2447 10.8013 20.9438 10.9168C21.6429 11.0323 22.2842 11.3756 22.7681 11.8932C23.4875 11.7509 24.1774 11.487 24.8081 11.1129C24.5683 11.8577 24.0663 12.4902 23.3954 12.8928C24.0326 12.816 24.6549 12.6447 25.2416 12.3845C24.8106 13.0303 24.2677 13.5939 23.6385 14.0488V14.0488Z" fill="black"/>
</svg>
