<svg width="30" height="27" viewBox="0 0 30 27" fill="none" xmlns="http://www.w3.org/2000/svg">
<g clip-path="url(#clip0_232_347)">
<g filter="url(#filter0_i_232_347)">
<path d="M11.9436 9.4717L14.199 6.43394L13.3961 5.83783L14.199 6.43394C14.9868 5.37275 14.7408 3.88865 13.6705 3.12613L13.6705 3.12611C12.6123 2.37228 11.1291 2.59552 10.3506 3.64401L10.3506 3.64404L6.0239 9.4717H3.6092C2.50215 9.4717 1.56934 10.3561 1.56934 11.4903V12.1694C1.56934 13.1173 2.22083 13.8907 3.08104 14.1193L4.09766 21.0905L4.09767 21.0905C4.31795 22.6006 5.62998 23.6954 7.14605 23.6954H22.9494C24.4655 23.6954 25.7775 22.6006 25.9977 21.0905L27.0144 14.1193C27.8746 13.8907 28.5261 13.1173 28.5261 12.1694V11.4903C28.5261 10.3561 27.5933 9.4717 26.4863 9.4717H24.0716L19.7449 3.644L19.7449 3.644C18.9664 2.59543 17.483 2.37221 16.4249 3.12613C15.3548 3.88861 15.1086 5.3727 15.8965 6.4339C15.8965 6.43391 15.8965 6.43392 15.8965 6.43393L18.1518 9.4717H11.9436ZM15.0876 14.2067V18.9604C15.0876 18.9606 15.0876 18.9607 15.0876 18.9609C15.0871 18.9617 15.0859 18.9637 15.0833 18.9663C15.0798 18.9696 15.0752 18.9728 15.0697 18.9751C15.0649 18.9771 15.058 18.979 15.0477 18.979C15.0374 18.979 15.0306 18.9771 15.0257 18.9751C15.0203 18.9728 15.0156 18.9696 15.0122 18.9663C15.0107 18.9648 15.0097 18.9635 15.009 18.9626C15.0084 18.9618 15.0081 18.9612 15.0079 18.9609C15.0079 18.9607 15.0079 18.9606 15.0079 18.9604V14.2067C15.0079 14.2065 15.0079 14.2063 15.0079 14.2062C15.0083 14.2054 15.0096 14.2034 15.0122 14.2008C15.0156 14.1974 15.0203 14.1942 15.0257 14.192C15.0306 14.1899 15.0374 14.1881 15.0477 14.1881C15.058 14.1881 15.0649 14.1899 15.0697 14.192C15.0752 14.1942 15.0798 14.1974 15.0833 14.2008C15.0859 14.2034 15.0871 14.2054 15.0876 14.2062C15.0876 14.2063 15.0876 14.2065 15.0876 14.2067ZM19.9403 14.2067V18.9604C19.9403 18.9606 19.9403 18.9607 19.9403 18.9609C19.9398 18.9617 19.9386 18.9637 19.936 18.9663C19.9325 18.9696 19.9279 18.9728 19.9224 18.9751C19.9176 18.9771 19.9107 18.979 19.9004 18.979C19.8902 18.979 19.8833 18.9771 19.8784 18.9751C19.873 18.9728 19.8684 18.9696 19.8649 18.9663C19.8623 18.9637 19.861 18.9617 19.8606 18.9609C19.8606 18.9607 19.8606 18.9606 19.8606 18.9604V14.2067C19.8606 14.2065 19.8606 14.2063 19.8606 14.2062C19.861 14.2054 19.8623 14.2034 19.8649 14.2008C19.8684 14.1974 19.873 14.1942 19.8784 14.192C19.8833 14.1899 19.8902 14.1881 19.9004 14.1881C19.9107 14.1881 19.9176 14.1899 19.9224 14.192C19.9279 14.1942 19.9325 14.1974 19.936 14.2008C19.937 14.2018 19.9379 14.2028 19.9386 14.2036C19.9395 14.2048 19.94 14.2057 19.9403 14.2062C19.9403 14.2063 19.9403 14.2065 19.9403 14.2067ZM10.2349 14.2067V18.9604C10.2349 18.9606 10.2349 18.9607 10.2349 18.9609C10.2344 18.9617 10.2332 18.9637 10.2305 18.9663C10.2271 18.9696 10.2225 18.9728 10.217 18.9751C10.2122 18.9771 10.2053 18.979 10.195 18.979C10.1847 18.979 10.1779 18.9771 10.173 18.9751C10.1676 18.9728 10.1629 18.9696 10.1595 18.9663C10.1569 18.9637 10.1556 18.9617 10.1552 18.9609C10.1552 18.9607 10.1552 18.9606 10.1552 18.9604V14.2067C10.1552 14.2065 10.1552 14.2063 10.1552 14.2062C10.1556 14.2054 10.1569 14.2034 10.1595 14.2008C10.1629 14.1974 10.1676 14.1942 10.173 14.192C10.1779 14.1899 10.1847 14.1881 10.195 14.1881C10.2053 14.1881 10.2122 14.1899 10.217 14.192C10.2225 14.1942 10.2271 14.1974 10.2305 14.2008C10.2332 14.2034 10.2344 14.2054 10.2349 14.2062C10.2349 14.2063 10.2349 14.2065 10.2349 14.2067Z" stroke="white" stroke-width="2"/>
</g>
</g>
<defs>
<filter id="filter0_i_232_347" x="0.569336" y="1.68079" width="28.9568" height="27.0145" filterUnits="userSpaceOnUse" color-interpolation-filters="sRGB">
<feFlood flood-opacity="0" result="BackgroundImageFix"/>
<feBlend mode="normal" in="SourceGraphic" in2="BackgroundImageFix" result="shape"/>
<feColorMatrix in="SourceAlpha" type="matrix" values="0 0 0 0 0 0 0 0 0 0 0 0 0 0 0 0 0 0 127 0" result="hardAlpha"/>
<feOffset dy="4"/>
<feGaussianBlur stdDeviation="2"/>
<feComposite in2="hardAlpha" operator="arithmetic" k2="-1" k3="1"/>
<feColorMatrix type="matrix" values="0 0 0 0 0 0 0 0 0 0 0 0 0 0 0 0 0 0 0.25 0"/>
<feBlend mode="normal" in2="shape" result="effect1_innerShadow_232_347"/>
</filter>
<clipPath id="clip0_232_347">
<rect width="29.7105" height="26.1452" fill="white" transform="translate(0.192383 0.115356)"/>
</clipPath>
</defs>
</svg>
