<svg width="34" height="34" viewBox="0 0 34 34" fill="none" xmlns="http://www.w3.org/2000/svg">
<path d="M19.7251 16.7161L15.9069 14.9345C15.5737 14.7798 15.3 14.9532 15.3 15.3221V18.6779C15.3 19.0468 15.5737 19.2202 15.9069 19.0655L19.7234 17.2839C20.0583 17.1275 20.0583 16.8725 19.7251 16.7161ZM17 0.679993C7.98659 0.679993 0.679993 7.98659 0.679993 17C0.679993 26.0134 7.98659 33.32 17 33.32C26.0134 33.32 33.32 26.0134 33.32 17C33.32 7.98659 26.0134 0.679993 17 0.679993ZM17 23.63C8.64619 23.63 8.49999 22.8769 8.49999 17C8.49999 11.1231 8.64619 10.37 17 10.37C25.3538 10.37 25.5 11.1231 25.5 17C25.5 22.8769 25.3538 23.63 17 23.63Z" fill="black"/>
</svg>
