<svg width="34" height="34" viewBox="0 0 34 34" fill="none" xmlns="http://www.w3.org/2000/svg">
<path d="M22.1 17.0002C22.1 18.3528 21.5627 19.65 20.6062 20.6064C19.6498 21.5629 18.3526 22.1002 17 22.1002C15.6474 22.1002 14.3502 21.5629 13.3937 20.6064C12.4373 19.65 11.9 18.3528 11.9 17.0002C11.9 16.7095 11.9306 16.4256 11.9833 16.1502H10.2V22.9451C10.2 23.4177 10.5825 23.8002 11.0551 23.8002H22.9466C23.1731 23.7997 23.3901 23.7094 23.5501 23.5491C23.7101 23.3888 23.8 23.1716 23.8 22.9451V16.1502H22.0167C22.0694 16.4256 22.1 16.7095 22.1 17.0002ZM17 20.4002C17.4466 20.4001 17.8888 20.312 18.3014 20.141C18.7139 19.97 19.0888 19.7194 19.4045 19.4035C19.7202 19.0876 19.9706 18.7126 20.1414 18.3C20.3123 17.8873 20.4001 17.4451 20.4 16.9985C20.3999 16.5519 20.3118 16.1097 20.1408 15.6971C19.9698 15.2845 19.7192 14.9097 19.4033 14.594C19.0874 14.2782 18.7125 14.0278 18.2998 13.857C17.8872 13.6862 17.4449 13.5984 16.9983 13.5985C16.0963 13.5987 15.2314 13.9572 14.5938 14.5952C13.9562 15.2331 13.5981 16.0982 13.5983 17.0002C13.5985 17.9021 13.957 18.7671 14.595 19.4047C15.2329 20.0423 16.098 20.4004 17 20.4002ZM21.08 13.4302H23.1183C23.2537 13.4302 23.3836 13.3765 23.4795 13.2809C23.5754 13.1853 23.6295 13.0556 23.63 12.9202V10.8819C23.63 10.7462 23.5761 10.616 23.4801 10.52C23.3842 10.4241 23.254 10.3702 23.1183 10.3702H21.08C20.9443 10.3702 20.8141 10.4241 20.7182 10.52C20.6222 10.616 20.5683 10.7462 20.5683 10.8819V12.9202C20.57 13.2007 20.7995 13.4302 21.08 13.4302ZM17 0.680176C12.6717 0.680176 8.5206 2.3996 5.46001 5.46019C2.39942 8.52079 0.679993 12.6718 0.679993 17.0002C0.679993 21.3285 2.39942 25.4796 5.46001 28.5402C8.5206 31.6008 12.6717 33.3202 17 33.3202C19.1432 33.3202 21.2654 32.898 23.2454 32.0779C25.2254 31.2577 27.0245 30.0556 28.54 28.5402C30.0554 27.0247 31.2576 25.2256 32.0777 23.2456C32.8979 21.2655 33.32 19.1434 33.32 17.0002C33.32 14.857 32.8979 12.7348 32.0777 10.7548C31.2576 8.77475 30.0554 6.97565 28.54 5.46019C27.0245 3.94474 25.2254 2.74262 23.2454 1.92246C21.2654 1.10231 19.1432 0.680176 17 0.680176ZM25.5 23.6115C25.5 24.6502 24.65 25.5002 23.6113 25.5002H10.3887C9.34999 25.5002 8.49999 24.6502 8.49999 23.6115V10.3889C8.49999 9.35018 9.34999 8.50018 10.3887 8.50018H23.6113C24.65 8.50018 25.5 9.35018 25.5 10.3889V23.6115Z" fill="#CED8E2"/>
</svg>
