<svg width="34" height="34" viewBox="0 0 34 34" fill="none" xmlns="http://www.w3.org/2000/svg">
<path d="M17 0.680176C7.98659 0.680176 0.679993 7.98678 0.679993 17.0002C0.679993 26.0136 7.98659 33.3202 17 33.3202C26.0134 33.3202 33.32 26.0136 33.32 17.0002C33.32 7.98678 26.0134 0.680176 17 0.680176ZM23.6385 14.049C23.6453 14.1884 23.647 14.3278 23.647 14.4638C23.647 18.7138 20.4153 23.6115 14.5027 23.6115C12.7556 23.6144 11.0448 23.1126 9.57609 22.1665C9.82599 22.1971 10.0827 22.209 10.3428 22.209C11.849 22.209 13.2345 21.6973 14.3344 20.8337C13.6641 20.8205 13.0146 20.5986 12.4765 20.1988C11.9383 19.799 11.5383 19.2412 11.3322 18.6033C11.8136 18.6948 12.3094 18.6756 12.7823 18.5472C12.0548 18.4001 11.4005 18.0059 10.9305 17.4314C10.4605 16.857 10.2036 16.1376 10.2034 15.3954V15.3563C10.6369 15.596 11.1333 15.7422 11.6603 15.7592C10.9783 15.3052 10.4954 14.6077 10.3106 13.8095C10.1257 13.0113 10.2528 12.1726 10.6658 11.465C11.4732 12.4578 12.4801 13.2699 13.6214 13.8489C14.7626 14.4279 16.0127 14.7607 17.2907 14.8259C17.1282 14.1362 17.1981 13.4122 17.4896 12.7663C17.7811 12.1205 18.2777 11.5891 18.9024 11.2546C19.5271 10.9202 20.2447 10.8015 20.9438 10.917C21.6429 11.0325 22.2842 11.3758 22.7681 11.8934C23.4875 11.751 24.1774 11.4872 24.8081 11.1131C24.5683 11.8579 24.0663 12.4904 23.3954 12.893C24.0326 12.8162 24.6549 12.6449 25.2416 12.3847C24.8106 13.0305 24.2677 13.5941 23.6385 14.049Z" fill="#CED8E2"/>
</svg>
