<svg width="34" height="34" viewBox="0 0 34 34" fill="none" xmlns="http://www.w3.org/2000/svg">
<path d="M19.7251 16.7163L15.9069 14.9347C15.5737 14.78 15.3 14.9534 15.3 15.3223V18.6781C15.3 19.047 15.5737 19.2204 15.9069 19.0657L19.7234 17.2841C20.0583 17.1277 20.0583 16.8727 19.7251 16.7163ZM17 0.680176C7.98659 0.680176 0.679993 7.98678 0.679993 17.0002C0.679993 26.0136 7.98659 33.3202 17 33.3202C26.0134 33.3202 33.32 26.0136 33.32 17.0002C33.32 7.98678 26.0134 0.680176 17 0.680176ZM17 23.6302C8.64619 23.6302 8.49999 22.8771 8.49999 17.0002C8.49999 11.1233 8.64619 10.3702 17 10.3702C25.3538 10.3702 25.5 11.1233 25.5 17.0002C25.5 22.8771 25.3538 23.6302 17 23.6302Z" fill="#CED8E2"/>
</svg>
